<svg width="933" height="304" viewBox="0 0 933 304" fill="none" xmlns="http://www.w3.org/2000/svg">
<path d="M848.745 301.093V303.215H832.328V280H848.247V282.123H834.782V290.38H846.788V292.47H834.782V301.093H848.745Z" fill="#FDF567"/>
<path d="M807.875 280H810.329V301.093H823.33V303.215H807.875V280Z" fill="#FDF567"/>
<path d="M794.422 280H796.876V303.215H794.422V280Z" fill="#FDF567"/>
<path d="M778.649 291.243C780.175 291.574 781.346 292.238 782.164 293.233C783.005 294.205 783.425 295.466 783.425 297.013C783.425 299.003 782.684 300.54 781.203 301.623C779.743 302.685 777.577 303.215 774.702 303.215H764.023V280H774.039C776.626 280 778.627 280.52 780.042 281.559C781.479 282.598 782.198 284.068 782.198 285.97C782.198 287.252 781.877 288.346 781.236 289.253C780.617 290.137 779.754 290.801 778.649 291.243ZM766.478 282.023V290.447H773.873C775.753 290.447 777.201 290.093 778.218 289.386C779.235 288.656 779.743 287.606 779.743 286.235C779.743 284.864 779.235 283.825 778.218 283.117C777.201 282.388 775.753 282.023 773.873 282.023H766.478ZM774.669 301.192C776.748 301.192 778.317 300.838 779.379 300.131C780.44 299.423 780.97 298.318 780.97 296.814C780.97 293.918 778.87 292.47 774.669 292.47H766.478V301.192H774.669Z" fill="#FDF567"/>
<path d="M743.853 303.613C741.554 303.613 739.464 303.105 737.585 302.088C735.728 301.048 734.268 299.633 733.207 297.842C732.168 296.052 731.648 294.04 731.648 291.807C731.648 289.573 732.168 287.562 733.207 285.771C734.268 283.98 735.728 282.576 737.585 281.559C739.464 280.52 741.554 280 743.853 280C746.152 280 748.22 280.509 750.055 281.526C751.912 282.543 753.371 283.958 754.432 285.771C755.494 287.562 756.024 289.573 756.024 291.807C756.024 294.04 755.494 296.063 754.432 297.876C753.371 299.667 751.912 301.07 750.055 302.088C748.22 303.105 746.152 303.613 743.853 303.613ZM743.853 301.424C745.688 301.424 747.346 301.015 748.828 300.197C750.309 299.357 751.47 298.207 752.31 296.748C753.15 295.267 753.57 293.62 753.57 291.807C753.57 289.994 753.15 288.357 752.31 286.898C751.47 285.417 750.309 284.267 748.828 283.449C747.346 282.609 745.688 282.189 743.853 282.189C742.018 282.189 740.349 282.609 738.845 283.449C737.364 284.267 736.192 285.417 735.33 286.898C734.49 288.357 734.069 289.994 734.069 291.807C734.069 293.62 734.49 295.267 735.33 296.748C736.192 298.207 737.364 299.357 738.845 300.197C740.349 301.015 742.018 301.424 743.853 301.424Z" fill="#FDF567"/>
<path d="M723.65 280V303.215H721.295V284.643L712.175 300.264H711.014L701.894 284.743V303.215H699.539V280H701.562L711.644 297.212L721.627 280H723.65Z" fill="#FDF567"/>
<path d="M679.369 303.613C677.069 303.613 674.98 303.105 673.101 302.088C671.243 301.048 669.784 299.633 668.723 297.842C667.684 296.052 667.164 294.04 667.164 291.807C667.164 289.573 667.684 287.562 668.723 285.771C669.784 283.98 671.243 282.576 673.101 281.559C674.98 280.52 677.069 280 679.369 280C681.668 280 683.735 280.509 685.57 281.526C687.428 282.543 688.887 283.958 689.948 285.771C691.009 287.562 691.54 289.573 691.54 291.807C691.54 294.04 691.009 296.063 689.948 297.876C688.887 299.667 687.428 301.07 685.57 302.088C683.735 303.105 681.668 303.613 679.369 303.613ZM679.369 301.424C681.204 301.424 682.862 301.015 684.343 300.197C685.825 299.357 686.985 298.207 687.826 296.748C688.666 295.267 689.086 293.62 689.086 291.807C689.086 289.994 688.666 288.357 687.826 286.898C686.985 285.417 685.825 284.267 684.343 283.449C682.862 282.609 681.204 282.189 679.369 282.189C677.533 282.189 675.864 282.609 674.361 283.449C672.879 284.267 671.708 285.417 670.845 286.898C670.005 288.357 669.585 289.994 669.585 291.807C669.585 293.62 670.005 295.267 670.845 296.748C671.708 298.207 672.879 299.357 674.361 300.197C675.864 301.015 677.533 301.424 679.369 301.424Z" fill="#FDF567"/>
<path d="M650.549 282.123H642.391V280H661.162V282.123H653.003V303.215H650.549V282.123Z" fill="#FDF567"/>
<path d="M624.872 303.414C621.865 303.414 619.521 302.552 617.841 300.827C616.16 299.103 615.32 296.593 615.32 293.299V280H617.774V293.199C617.774 295.897 618.383 297.909 619.599 299.235C620.815 300.562 622.572 301.225 624.872 301.225C627.193 301.225 628.962 300.562 630.178 299.235C631.394 297.909 632.002 295.897 632.002 293.199V280H634.39V293.299C634.39 296.593 633.55 299.103 631.869 300.827C630.211 302.552 627.879 303.414 624.872 303.414Z" fill="#FDF567"/>
<path d="M602.946 297.013H590.011L587.226 303.215H584.672L595.285 280H597.706L608.318 303.215H605.731L602.946 297.013ZM602.05 295.024L596.478 282.554L590.907 295.024H602.05Z" fill="#FDF567"/>
<path d="M565.088 301.421V303.543H548.672V280.328H564.591V282.451H551.126V290.709H563.132V292.798H551.126V301.421H565.088Z" fill="#FDF567"/>
<path d="M534.078 291.935H536.433V300.79C535.349 301.741 534.067 302.471 532.586 302.979C531.104 303.488 529.546 303.742 527.91 303.742C525.588 303.742 523.499 303.233 521.641 302.216C519.784 301.199 518.325 299.795 517.264 298.005C516.203 296.192 515.672 294.169 515.672 291.935C515.672 289.702 516.203 287.69 517.264 285.9C518.325 284.087 519.784 282.672 521.641 281.654C523.499 280.637 525.599 280.129 527.943 280.129C529.712 280.129 531.337 280.416 532.818 280.991C534.299 281.544 535.548 282.373 536.566 283.479L535.04 285.037C533.205 283.224 530.872 282.318 528.042 282.318C526.163 282.318 524.46 282.738 522.935 283.578C521.431 284.396 520.249 285.546 519.386 287.027C518.524 288.486 518.093 290.122 518.093 291.935C518.093 293.748 518.524 295.385 519.386 296.844C520.249 298.303 521.431 299.453 522.935 300.293C524.438 301.133 526.13 301.553 528.009 301.553C530.397 301.553 532.42 300.956 534.078 299.762V291.935Z" fill="#FDF567"/>
<path d="M503.946 297.342H491.011L488.226 303.543H485.672L496.285 280.328H498.706L509.318 303.543H506.731L503.946 297.342ZM503.05 295.352L497.478 282.882L491.907 295.352H503.05Z" fill="#FDF567"/>
<path d="M476.524 303.543L471.218 296.081C470.621 296.148 470.002 296.181 469.361 296.181H463.126V303.543H460.672V280.328H469.361C472.324 280.328 474.645 281.036 476.326 282.451C478.006 283.866 478.846 285.811 478.846 288.288C478.846 290.101 478.382 291.637 477.453 292.897C476.547 294.136 475.242 295.031 473.54 295.584L479.211 303.543H476.524ZM469.295 294.091C471.594 294.091 473.352 293.583 474.568 292.566C475.784 291.549 476.392 290.123 476.392 288.288C476.392 286.408 475.784 284.971 474.568 283.976C473.352 282.959 471.594 282.451 469.295 282.451H463.126V294.091H469.295Z" fill="#FDF567"/>
<path d="M440.83 282.451H432.672V280.328H451.443V282.451H443.285V303.543H440.83V282.451Z" fill="#FDF567"/>
<path d="M421.672 280.328H424.126V303.543H421.672V280.328Z" fill="#FDF567"/>
<path d="M413.655 280.328L403.374 303.543H400.953L390.672 280.328H393.325L402.213 300.492L411.168 280.328H413.655Z" fill="#FDF567"/>
<path d="M369.443 303.906L366.226 300.589C364.258 302.69 361.671 303.74 358.466 303.74C356.962 303.74 355.613 303.497 354.419 303.01C353.248 302.502 352.33 301.806 351.667 300.921C351.004 300.015 350.672 298.987 350.672 297.837C350.672 296.444 351.114 295.195 351.998 294.089C352.883 292.984 354.386 291.823 356.509 290.607C355.403 289.457 354.641 288.484 354.22 287.688C353.8 286.87 353.59 286.008 353.59 285.102C353.59 283.62 354.121 282.426 355.182 281.52C356.244 280.613 357.67 280.16 359.46 280.16C361.119 280.16 362.434 280.569 363.407 281.387C364.38 282.205 364.866 283.333 364.866 284.77C364.866 285.92 364.479 286.959 363.706 287.887C362.932 288.794 361.594 289.8 359.693 290.905L366.06 297.472C366.768 296.212 367.287 294.719 367.619 292.995L369.542 293.592C369.122 295.67 368.437 297.45 367.486 298.931L370.803 302.347L369.443 303.906ZM359.46 281.918C358.311 281.918 357.404 282.205 356.741 282.78C356.1 283.355 355.779 284.118 355.779 285.068C355.779 285.754 355.956 286.406 356.31 287.025C356.664 287.644 357.36 288.484 358.399 289.546C360.08 288.573 361.24 287.744 361.881 287.058C362.523 286.373 362.843 285.621 362.843 284.803C362.843 283.919 362.545 283.222 361.948 282.714C361.351 282.183 360.522 281.918 359.46 281.918ZM358.598 301.783C361.163 301.783 363.241 300.91 364.833 299.163L357.835 291.967C356 293.006 354.729 293.946 354.021 294.786C353.336 295.626 352.993 296.566 352.993 297.605C352.993 298.865 353.502 299.882 354.519 300.656C355.558 301.408 356.918 301.783 358.598 301.783Z" fill="#FDF567"/>
<path d="M329.088 301.421V303.543H312.672V280.328H328.591V282.451H315.126V290.709H327.132V292.798H315.126V301.421H329.088Z" fill="#FDF567"/>
<path d="M293.295 303.742C291.57 303.742 289.912 303.466 288.32 302.913C286.75 302.36 285.534 301.631 284.672 300.724L285.634 298.834C286.474 299.674 287.59 300.359 288.983 300.89C290.376 301.398 291.813 301.653 293.295 301.653C295.373 301.653 296.932 301.277 297.971 300.525C299.01 299.751 299.53 298.756 299.53 297.54C299.53 296.612 299.242 295.871 298.667 295.318C298.115 294.765 297.429 294.345 296.611 294.058C295.793 293.748 294.654 293.417 293.195 293.063C291.448 292.621 290.056 292.201 289.016 291.803C287.977 291.383 287.082 290.753 286.33 289.912C285.6 289.072 285.236 287.934 285.236 286.496C285.236 285.325 285.545 284.263 286.164 283.313C286.783 282.34 287.734 281.566 289.016 280.991C290.299 280.416 291.891 280.129 293.792 280.129C295.119 280.129 296.412 280.317 297.672 280.693C298.955 281.046 300.06 281.544 300.989 282.185L300.16 284.142C299.187 283.501 298.148 283.025 297.042 282.716C295.937 282.384 294.853 282.218 293.792 282.218C291.758 282.218 290.221 282.616 289.182 283.412C288.165 284.186 287.657 285.192 287.657 286.43C287.657 287.359 287.933 288.11 288.486 288.685C289.061 289.238 289.768 289.669 290.608 289.979C291.471 290.266 292.62 290.587 294.057 290.941C295.76 291.361 297.131 291.781 298.17 292.201C299.231 292.599 300.127 293.218 300.856 294.058C301.586 294.876 301.951 295.993 301.951 297.408C301.951 298.579 301.63 299.652 300.989 300.625C300.37 301.575 299.408 302.338 298.103 302.913C296.799 303.466 295.196 303.742 293.295 303.742Z" fill="#FDF567"/>
<path d="M271.676 280.328H274.13V303.543H271.676V280.328Z" fill="#FDF567"/>
<path d="M258.525 303.543L253.218 296.081C252.621 296.148 252.002 296.181 251.361 296.181H245.126V303.543H242.672V280.328H251.361C254.324 280.328 256.645 281.036 258.326 282.451C260.006 283.866 260.846 285.811 260.846 288.288C260.846 290.101 260.382 291.637 259.453 292.897C258.547 294.136 257.242 295.031 255.54 295.584L261.211 303.543H258.525ZM251.295 294.091C253.594 294.091 255.352 293.583 256.568 292.566C257.784 291.549 258.392 290.123 258.392 288.288C258.392 286.408 257.784 284.971 256.568 283.976C255.352 282.959 253.594 282.451 251.295 282.451H245.126V294.091H251.295Z" fill="#FDF567"/>
<path d="M227.301 291.571C228.827 291.903 229.999 292.566 230.817 293.561C231.657 294.534 232.077 295.794 232.077 297.342C232.077 299.331 231.336 300.868 229.855 301.951C228.396 303.013 226.229 303.543 223.355 303.543H212.676V280.328H222.691C225.278 280.328 227.279 280.848 228.694 281.887C230.131 282.926 230.85 284.396 230.85 286.298C230.85 287.58 230.529 288.675 229.888 289.581C229.269 290.465 228.407 291.129 227.301 291.571ZM215.13 282.351V290.775H222.526C224.405 290.775 225.853 290.421 226.87 289.714C227.887 288.984 228.396 287.934 228.396 286.563C228.396 285.192 227.887 284.153 226.87 283.446C225.853 282.716 224.405 282.351 222.526 282.351H215.13ZM223.322 301.52C225.4 301.52 226.97 301.166 228.031 300.459C229.092 299.751 229.623 298.646 229.623 297.143C229.623 294.246 227.522 292.798 223.322 292.798H215.13V301.52H223.322Z" fill="#FDF567"/>
<path d="M193.672 293.527H202.361V295.584H193.672V293.527Z" fill="#FDF567"/>
<path d="M185.092 301.421V303.543H168.676V280.328H184.595V282.451H171.13V290.709H183.135V292.798H171.13V301.421H185.092Z" fill="#FDF567"/>
<path d="M155.524 303.543L150.218 296.081C149.621 296.148 149.002 296.181 148.361 296.181H142.126V303.543H139.672V280.328H148.361C151.324 280.328 153.645 281.036 155.326 282.451C157.006 283.866 157.846 285.811 157.846 288.288C157.846 290.101 157.382 291.637 156.453 292.897C155.547 294.136 154.242 295.031 152.54 295.584L158.211 303.543H155.524ZM148.295 294.091C150.594 294.091 152.352 293.583 153.568 292.566C154.784 291.549 155.392 290.123 155.392 288.288C155.392 286.408 154.784 284.971 153.568 283.976C152.352 282.959 150.594 282.451 148.295 282.451H142.126V294.091H148.295Z" fill="#FDF567"/>
<path d="M125.949 297.342H113.015L110.229 303.543H107.676L118.288 280.328H120.709L131.322 303.543H128.735L125.949 297.342ZM125.054 295.352L119.482 282.882L113.911 295.352H125.054Z" fill="#FDF567"/>
<path d="M92.6891 280.328C95.6518 280.328 97.9733 281.036 99.6536 282.451C101.334 283.866 102.174 285.811 102.174 288.288C102.174 290.764 101.334 292.71 99.6536 294.125C97.9733 295.517 95.6518 296.214 92.6891 296.214H86.4542V303.543H84V280.328H92.6891ZM92.6228 294.058C94.9222 294.058 96.6799 293.561 97.8959 292.566C99.1119 291.549 99.72 290.123 99.72 288.288C99.72 286.408 99.1119 284.971 97.8959 283.976C96.6799 282.959 94.9222 282.451 92.6228 282.451H86.4542V294.058H92.6228Z" fill="#FDF567"/>
<line x1="47" y1="255" x2="885.193" y2="255" stroke="white" stroke-width="2" stroke-linecap="round"/>
<path d="M875.16 216C865.791 216 854.76 214.434 850.529 212.738C850.227 210.389 846.449 202.559 846.449 191.597H851.285C852.191 202.167 864.885 210.128 878.636 210.128C890.423 210.128 897.827 204.125 897.827 195.642C897.827 173.196 847.96 178.808 847.96 151.403C847.96 135.091 865.943 127 882.414 127C889.667 127 904.174 128.566 908.254 130.523C908.707 133.264 911.125 140.18 911.125 151.795H906.138C906.743 139.919 896.316 132.481 883.018 132.481C872.44 132.481 865.187 137.048 865.187 145.792C865.187 168.76 914.449 159.755 914.449 189.9C914.449 207.909 896.769 216 875.16 216Z" fill="white"/>
<path d="M792.16 216C782.791 216 771.76 214.434 767.529 212.738C767.227 210.389 763.449 202.559 763.449 191.597H768.285C769.191 202.167 781.885 210.128 795.636 210.128C807.423 210.128 814.827 204.125 814.827 195.642C814.827 173.196 764.96 178.808 764.96 151.403C764.96 135.091 782.943 127 799.414 127C806.667 127 821.174 128.566 825.254 130.523C825.707 133.264 828.125 140.18 828.125 151.795H823.138C823.743 139.919 813.316 132.481 800.018 132.481C789.44 132.481 782.187 137.048 782.187 145.792C782.187 168.76 831.449 159.755 831.449 189.9C831.449 207.909 813.769 216 792.16 216Z" fill="white"/>
<path d="M740.654 200.32C743.268 206.686 747.121 211.752 754 211.752V215C742.855 214.48 729.784 214.48 719.328 215V211.752C726.069 211.752 725.932 206.686 723.318 200.32L719.19 190.577H683.279L679.565 200.32C677.226 206.686 677.913 211.752 684.655 211.752V215C674.061 214.48 668.007 214.48 657 215V211.752C663.742 211.752 667.594 206.686 670.071 200.32L698.552 129H710.109L740.654 200.32ZM686.444 182.653H715.75L700.34 146.278L686.444 182.653Z" fill="white"/>
<path d="M578 215V211.752C584.788 211.752 586.553 206.686 586.553 200.32V143.68C586.553 137.314 584.652 132.248 578 132.248V129C588.589 129.52 600.265 129.52 610.99 129V132.248C604.202 132.248 602.437 137.314 602.437 143.68V199.281C602.573 204.607 603.252 209.674 608.954 209.674H622.802C634.477 209.674 641.537 199.281 641.537 189.018H644.931C645.202 196.033 644.659 207.985 643.573 215H578Z" fill="white"/>
<path d="M527.52 168.718C540.556 169.445 552.964 169.445 566 168.718V172.789C558.147 172.789 557.362 176.859 557.362 184.128V200.846C551.707 211.167 533.803 218 515.427 218C484.329 218 457 198.229 457 168.427C457 139.207 483.543 119 516.84 119C535.844 119 550.608 125.833 552.807 127.141C553.278 130.194 555.791 143.423 555.791 156.361H550.608C550.608 133.683 532.86 125.687 516.055 125.687C492.024 125.687 478.831 141.824 478.831 165.52C478.831 177.731 482.287 211.167 516.997 211.167C526.421 211.167 533.017 208.551 539.3 205.062V186.163C539.3 176.568 538.986 172.789 527.52 172.789V168.718Z" fill="white"/>
<path d="M379.858 129C390.558 129.517 393.164 129.517 404 129V132.232C397.142 132.232 395.358 137.273 395.358 143.608V216H390.146L326.5 149.037V199.97C326.5 206.305 328.283 211.346 335.142 211.346V214.578C324.305 214.061 321.699 214.061 311 214.578V211.346C317.721 211.346 319.642 206.305 319.642 199.97V143.608C319.642 137.273 317.858 132.232 311 132.232V129H327.735L388.5 192.731L388.089 143.608C388.089 137.273 386.58 132.232 379.858 132.232V129Z" fill="#FDF567"/>
<path d="M288.72 189.018C289.404 197.073 288.72 208.245 287.899 215H221V211.752C227.704 211.752 229.619 206.686 229.619 200.32V141.082C229.619 135.236 227.704 132.637 221 132.637V129H285.573C286.257 133.157 287.078 145.109 286.668 151.864H282.974C283.248 143.29 277.639 134.716 268.472 134.716H245.625V165.634H262.863C270.661 165.634 273.397 163.686 273.397 157.32H277.091C276.681 165.894 276.681 172.52 277.091 181.094H273.397C273.397 174.858 270.661 172.779 262.863 172.779H245.625V200.84C245.625 204.607 247.404 209.674 252.739 209.674H266.42C277.228 209.674 285.163 199.411 285.163 189.018H288.72Z" fill="#FDF567"/>
<path d="M140.241 129C184.584 129 206 142.116 206 171.334C206 217.823 151.636 214.966 149.439 214.966H111V211.719C117.727 211.719 119.512 206.655 119.512 200.292V141.077C119.512 135.233 117.727 132.636 111 132.636V129H140.241ZM148.753 209.512C165.501 209.512 187.192 202.11 187.192 171.983C187.192 139.778 163.717 135.103 143.948 135.103H135.848V195.877C135.848 207.174 138.594 209.382 148.753 209.512Z" fill="#FDF567"/>
<path d="M96.6706 185.997C97.4753 194.988 96.6706 207.459 95.7049 215H17V211.375C24.8866 211.375 27.1399 205.719 27.1399 198.613V132.486C27.1399 125.961 24.8866 123.06 17 123.06V119H92.9687C93.7735 123.64 94.7392 136.982 94.2563 144.523H89.9107C90.2326 134.952 83.6336 125.381 72.8499 125.381H45.9711V159.894H66.2509C75.4251 159.894 78.6441 157.719 78.6441 150.613H82.9898C82.5069 160.184 82.5069 167.58 82.9898 177.151H78.6441C78.6441 170.19 75.4251 167.87 66.2509 167.87H45.9711V199.193C45.9711 203.399 48.0635 209.054 54.3406 209.054H70.4356C83.1507 209.054 92.4859 197.598 92.4859 185.997H96.6706Z" fill="#FDF567"/>
<path d="M466.051 0C638.839 6.94807e-06 804.551 36.5588 926.73 101.634C928.533 102.594 930.324 103.559 932.104 104.529C803.086 50.1886 637.764 20 466.051 20C294.338 20 129.017 50.1882 0 104.528C1.7786 103.559 3.56916 102.594 5.37109 101.634C127.551 36.5588 293.262 -9.96088e-09 466.051 0Z" fill="white"/>
</svg>
