<svg width="898" height="99" viewBox="0 0 898 99" fill="none" xmlns="http://www.w3.org/2000/svg">
<path d="M858.16 97C848.791 97 837.76 95.434 833.529 93.7375C833.227 91.3886 829.449 83.5586 829.449 72.5968H834.285C835.191 83.1671 847.885 91.1276 861.636 91.1276C873.423 91.1276 880.827 85.1246 880.827 76.6422C880.827 54.1965 830.96 59.8079 830.96 32.4032C830.96 16.0909 848.943 8 865.414 8C872.667 8 887.174 9.56598 891.254 11.5235C891.707 14.2639 894.125 21.1804 894.125 32.7947H889.138C889.743 20.9194 879.316 13.4809 866.018 13.4809C855.44 13.4809 848.187 18.0484 848.187 26.7918C848.187 49.7595 897.449 40.7551 897.449 70.9003C897.449 88.9091 879.769 97 858.16 97Z" fill="white"/>
<path d="M775.16 97C765.791 97 754.76 95.434 750.529 93.7375C750.227 91.3886 746.449 83.5586 746.449 72.5968H751.285C752.191 83.1671 764.885 91.1276 778.636 91.1276C790.423 91.1276 797.827 85.1246 797.827 76.6422C797.827 54.1965 747.96 59.8079 747.96 32.4032C747.96 16.0909 765.943 8 782.414 8C789.667 8 804.174 9.56598 808.254 11.5235C808.707 14.2639 811.125 21.1804 811.125 32.7947H806.138C806.743 20.9194 796.316 13.4809 783.018 13.4809C772.44 13.4809 765.187 18.0484 765.187 26.7918C765.187 49.7595 814.449 40.7551 814.449 70.9003C814.449 88.9091 796.769 97 775.16 97Z" fill="white"/>
<path d="M723.654 81.3202C726.268 87.6858 730.121 92.7523 737 92.7523V96C725.855 95.4804 712.784 95.4804 702.328 96V92.7523C709.069 92.7523 708.932 87.6858 706.318 81.3202L702.19 71.577H666.279L662.565 81.3202C660.226 87.6858 660.913 92.7523 667.655 92.7523V96C657.061 95.4804 651.007 95.4804 640 96V92.7523C646.742 92.7523 650.594 87.6858 653.071 81.3202L681.552 10H693.109L723.654 81.3202ZM669.444 63.6526H698.75L683.34 27.2779L669.444 63.6526Z" fill="white"/>
<path d="M561 96V92.7523C567.788 92.7523 569.553 87.6858 569.553 81.3202V24.6798C569.553 18.3142 567.652 13.2477 561 13.2477V10C571.589 10.5196 583.265 10.5196 593.99 10V13.2477C587.202 13.2477 585.437 18.3142 585.437 24.6798V80.281C585.573 85.6072 586.252 90.6737 591.954 90.6737H605.802C617.477 90.6737 624.537 80.281 624.537 70.0181H627.931C628.202 77.0332 627.659 88.9849 626.573 96H561Z" fill="white"/>
<path d="M510.52 49.7181C523.556 50.4449 535.964 50.4449 549 49.7181V53.7886C541.147 53.7886 540.362 57.859 540.362 65.1277V81.8458C534.707 92.1674 516.803 99 498.427 99C467.329 99 440 79.2291 440 49.4273C440 20.207 466.543 0 499.84 0C518.844 0 533.608 6.8326 535.807 8.14097C536.278 11.1938 538.791 24.4229 538.791 37.3612H533.608C533.608 14.6828 515.86 6.68722 499.055 6.68722C475.024 6.68722 461.831 22.8238 461.831 46.5198C461.831 58.7313 465.287 92.1674 499.997 92.1674C509.421 92.1674 516.017 89.5507 522.3 86.0617V67.163C522.3 57.5683 521.986 53.7886 510.52 53.7886V49.7181Z" fill="white"/>
<path d="M362.858 10C373.558 10.5171 376.164 10.5171 387 10V13.2318C380.142 13.2318 378.358 18.2734 378.358 24.6077V97H373.146L309.5 30.0372V80.9703C309.5 87.3046 311.283 92.3462 318.142 92.3462V95.578C307.305 95.0609 304.699 95.0609 294 95.578V92.3462C300.721 92.3462 302.642 87.3046 302.642 80.9703V24.6077C302.642 18.2734 300.858 13.2318 294 13.2318V10H310.735L371.5 73.7311L371.089 24.6077C371.089 18.2734 369.58 13.2318 362.858 13.2318V10Z" fill="#FDF567"/>
<path d="M271.72 70.0181C272.404 78.0725 271.72 89.2447 270.899 96H204V92.7523C210.704 92.7523 212.619 87.6858 212.619 81.3202V22.0816C212.619 16.2357 210.704 13.6375 204 13.6375V10H268.573C269.257 14.1571 270.078 26.1088 269.668 32.864H265.974C266.248 24.29 260.639 15.716 251.472 15.716H228.625V46.6344H245.863C253.661 46.6344 256.397 44.6858 256.397 38.3202H260.091C259.681 46.8943 259.681 53.5196 260.091 62.0937H256.397C256.397 55.858 253.661 53.7795 245.863 53.7795H228.625V81.8399C228.625 85.6072 230.404 90.6737 235.739 90.6737H249.42C260.228 90.6737 268.163 80.4109 268.163 70.0181H271.72Z" fill="#FDF567"/>
<path d="M123.241 10C167.584 10 189 23.1156 189 52.3336C189 98.8226 134.636 95.9658 132.439 95.9658H94V92.7193C100.727 92.7193 102.512 87.6549 102.512 81.2919V22.0768C102.512 16.2332 100.727 13.636 94 13.636V10H123.241ZM131.753 90.5118C148.501 90.5118 170.192 83.1099 170.192 52.9829C170.192 20.7782 146.717 16.1033 126.948 16.1033H118.848V76.8767C118.848 88.1743 121.594 90.3819 131.753 90.5118Z" fill="#FDF567"/>
<path d="M79.6706 66.997C80.4753 75.9879 79.6706 88.4592 78.7049 96H0V92.3746C7.88658 92.3746 10.1399 86.719 10.1399 79.6133V13.4864C10.1399 6.96073 7.88658 4.06043 0 4.06043V0H75.9687C76.7735 4.64048 77.7392 17.9819 77.2563 25.5227H72.9107C73.2326 15.9517 66.6336 6.38067 55.8499 6.38067H28.9711V40.8943H49.2509C58.4251 40.8943 61.6441 38.719 61.6441 31.6133H65.9898C65.5069 41.1843 65.5069 48.5801 65.9898 58.1511H61.6441C61.6441 51.1903 58.4251 48.8701 49.2509 48.8701H28.9711V80.1934C28.9711 84.3988 31.0635 90.0544 37.3406 90.0544H53.4356C66.1507 90.0544 75.4859 78.5982 75.4859 66.997H79.6706Z" fill="#FDF567"/>
</svg>
